<svg viewBox="0 0 60 60" fill="none" xmlns="http://www.w3.org/2000/svg">
  <path fill-rule="evenodd" clip-rule="evenodd" d="M26.0303 16.7511C26.9688 15.1255 29.0474 14.5686 30.6729 15.5071C32.2984 16.4456 32.8554 18.5241 31.9169 20.1497L17.9698 44.3068C17.5276 45.0726 16.8326 45.6012 16.051 45.848C14.5442 46.3657 12.8334 45.7629 12.0069 44.3313L4.42039 31.1911C4.18988 30.7918 4.32667 30.2813 4.72592 30.0508C7.57773 28.4043 11.2243 29.3814 12.8708 32.2332L14.7407 35.4719L15.3099 35.3194L26.0303 16.7511Z" fill="#6200b5"/>
  <rect x="29.0781" y="43.2324" width="6.79723" height="36.0012" rx="3.39861" transform="rotate(-150 29.0781 43.2324)" fill="#6200b5"/>
  <rect x="40.0039" y="42.4688" width="6.79723" height="25.8634" rx="3.39861" transform="rotate(-150 40.0039 42.4688)" fill="#6200b5"/>
  <rect x="45.1562" y="51.6897" width="6.79723" height="22.2081" rx="3.39861" transform="rotate(-150 45.1562 51.6897)" fill="#6200b5"/>
</svg>
